<?xml version="1.0" encoding="UTF-8" standalone="no"?>
<svg width="22px" height="24px" viewBox="0 0 22 24" version="1.1" xmlns="http://www.w3.org/2000/svg" xmlns:xlink="http://www.w3.org/1999/xlink">
    <defs></defs>
    <g stroke="none" stroke-width="1" fill="none" fill-rule="evenodd">
        <g transform="translate(-17.000000, -17.000000)" fill="#FFFFFF">
            <g transform="translate(17.000000, 16.888798)">
                <path d="M21.1013256,5.60784091 L0.898674419,5.60784091 C0.404186047,5.60784091 0.0033255814,5.19828409 0.0033255814,4.69306818 C0.0033255814,4.18785227 0.404186047,3.77829545 0.898674419,3.77829545 L21.1013256,3.77829545 C21.595814,3.77829545 21.9966744,4.18785227 21.9966744,4.69306818 C21.9966744,5.19828409 21.595814,5.60784091 21.1013256,5.60784091"></path>
                <path d="M3.8794186,8.49904545 C3.38493023,8.49904545 2.98406977,8.08948864 2.98406977,7.58427273 L2.98406977,1.80160227 C2.98406977,1.29664773 3.38493023,0.886829545 3.8794186,0.886829545 C4.37390698,0.886829545 4.77476744,1.29664773 4.77476744,1.80160227 L4.77476744,7.58427273 C4.77476744,8.08948864 4.37390698,8.49904545 3.8794186,8.49904545"></path>
                <path d="M21.1013256,13.2284205 L0.898674419,13.2284205 C0.404186047,13.2284205 0.0033255814,12.8188636 0.0033255814,12.3136477 C0.0033255814,11.8084318 0.404186047,11.398875 0.898674419,11.398875 L21.1013256,11.398875 C21.595814,11.398875 21.9966744,11.8084318 21.9966744,12.3136477 C21.9966744,12.8188636 21.595814,13.2284205 21.1013256,13.2284205"></path>
                <path d="M16.6358372,16.1198864 C16.1413488,16.1198864 15.7404884,15.7100682 15.7404884,15.2051136 L15.7404884,9.42244318 C15.7404884,8.91722727 16.1413488,8.50767045 16.6358372,8.50767045 C17.1303256,8.50767045 17.531186,8.91722727 17.531186,9.42244318 L17.531186,15.2051136 C17.531186,15.7100682 17.1303256,16.1198864 16.6358372,16.1198864"></path>
                <path d="M7.10216279,23.5904432 C6.60767442,23.5904432 6.20681395,23.180625 6.20681395,22.6756705 L6.20681395,16.893 C6.20681395,16.3877841 6.60767442,15.9782273 7.10216279,15.9782273 C7.59665116,15.9782273 7.99751163,16.3877841 7.99751163,16.893 L7.99751163,22.6756705 C7.99751163,23.180625 7.59665116,23.5904432 7.10216279,23.5904432"></path>
                <path d="M21.1013256,20.6989773 L0.898674419,20.6989773 C0.404186047,20.6989773 0.0033255814,20.2894205 0.0033255814,19.7842045 C0.0033255814,19.2789886 0.404186047,18.8694318 0.898674419,18.8694318 L21.1013256,18.8694318 C21.595814,18.8694318 21.9966744,19.2789886 21.9966744,19.7842045 C21.9966744,20.2894205 21.595814,20.6989773 21.1013256,20.6989773"></path>
            </g>
        </g>
    </g>
</svg>